<svg xmlns="http://www.w3.org/2000/svg" width="1200" height="193" fill="none"><path fill="#F9FF00" d="M22.2 184.9h-3.3c-1.1 0-2 .9-2 2v3.2c0 1.1.9 2 2 2h3.3c1.1 0 2-.9 2-2v-3.2c0-1.1-.9-2-2-2zm0-28.4h-3.3c-1.1 0-2 .9-2 2v3.2c0 1.1.9 2 2 2h3.3c1.1 0 2-.9 2-2v-3.2c0-1.1-.9-2-2-2z"/><path fill="#272717" d="M7.6 170.6H4.3c-1.1 0-2 .9-2 2v3.2c0 1.1.9 2 2 2h3.3c1.1 0 2-.9 2-2v-3.2c0-1.1-.9-2-2-2zm43.6-14.1h-3.3c-1.1 0-2 .9-2 2v3.2c0 1.1.9 2 2 2h3.3c1.1 0 2-.9 2-2v-3.2c0-1.1-.9-2-2-2zm-29-56.9h-3.3c-1.1 0-2 .9-2 2v3.2c0 1.1.9 2 2 2h3.3c1.1 0 2-.9 2-2v-3.2c0-1.1-.9-2-2-2zm29 85.3h-3.3c-1.1 0-2 .9-2 2v3.2c0 1.1.9 2 2 2h3.3c1.1 0 2-.9 2-2v-3.2c0-1.1-.9-2-2-2z"/><path fill="#9B9F0A" d="M36.6 170.6h-3.3c-1.1 0-2 .9-2 2v3.2c0 1.1.9 2 2 2h3.3c1.1 0 2-.9 2-2v-3.2c0-1.1-.9-2-2-2z"/><path fill="#272717" d="M7.6 142.2H4.3c-1.1 0-2 .9-2 2v3.2c0 1.1.9 2 2 2h3.3c1.1 0 2-.9 2-2v-3.2c0-1.1-.9-2-2-2z"/><path fill="#9B9F0A" d="M167.4 128.1h-3.3c-1.1 0-2 .9-2 2v3.2c0 1.1.9 2 2 2h3.3c1.1 0 2-.9 2-2v-3.2c0-1.1-.9-2-2-2z"/><path fill="#F9FF00" d="M51.2 14.3h-3.3c-1.1 0-2 .9-2 2v3.2c0 1.1.9 2 2 2h3.3c1.1 0 2-.9 2-2v-3.2c0-1.1-.9-2-2-2z"/><path fill="#9B9F0A" d="M138.3 128.1H135c-1.1 0-2 .9-2 2v3.2c0 1.1.9 2 2 2h3.3c1.1 0 2-.9 2-2v-3.2c0-1.1-.9-2-2-2z"/><path fill="#272717" d="M138.3 184.9H135c-1.1 0-2 .9-2 2v3.2c0 1.1.9 2 2 2h3.3c1.1 0 2-.9 2-2v-3.2c0-1.1-.9-2-2-2z"/><path fill="#9B9F0A" d="M167.4 184.9h-3.3c-1.1 0-2 .9-2 2v3.2c0 1.1.9 2 2 2h3.3c1.1 0 2-.9 2-2v-3.2c0-1.1-.9-2-2-2z"/><path fill="#272717" d="M123.7 184.9h-3.3c-1.1 0-2 .9-2 2v3.2c0 1.1.9 2 2 2h3.3c1.1 0 2-.9 2-2v-3.2c0-1.1-.9-2-2-2zm72.7 0h-3.3c-1.1 0-2 .9-2 2v3.2c0 1.1.9 2 2 2h3.3c1.1 0 2-.9 2-2v-3.2c0-1.1-.9-2-2-2z"/><path fill="#9B9F0A" d="M138.3 156.5H135c-1.1 0-2 .9-2 2v3.2c0 1.1.9 2 2 2h3.3c1.1 0 2-.9 2-2v-3.2c0-1.1-.9-2-2-2z"/><path fill="#3F4014" d="M109.3 14.3H106c-1.1 0-2 .9-2 2v3.2c0 1.1.9 2 2 2h3.3c1.1 0 2-.9 2-2v-3.2c0-1.1-.9-2-2-2z"/><path fill="#9B9F0A" d="M80.3 156.5H77c-1.1 0-2 .9-2 2v3.2c0 1.1.9 2 2 2h3.3c1.1 0 2-.9 2-2v-3.2c0-1.1-.9-2-2-2z"/><path fill="#272717" d="M65.6 142.2h-3.3c-1.1 0-2 .9-2 2v3.2c0 1.1.9 2 2 2h3.3c1.1 0 2-.9 2-2v-3.2c0-1.1-.9-2-2-2z"/><path fill="#F9FF00" d="M80.3 128.1H77c-1.1 0-2 .9-2 2v3.2c0 1.1.9 2 2 2h3.3c1.1 0 2-.9 2-2v-3.2c0-1.1-.9-2-2-2z"/><path fill="#9B9F0A" d="M109.3 156.5H106c-1.1 0-2 .9-2 2v3.2c0 1.1.9 2 2 2h3.3c1.1 0 2-.9 2-2v-3.2c0-1.1-.9-2-2-2zm-14.6 14.1h-3.3c-1.1 0-2 .9-2 2v3.2c0 1.1.9 2 2 2h3.3c1.1 0 2-.9 2-2v-3.2c0-1.1-.9-2-2-2zM80.3 14.3H77c-1.1 0-2 .9-2 2v3.2c0 1.1.9 2 2 2h3.3c1.1 0 2-.9 2-2v-3.2c0-1.1-.9-2-2-2z"/><path fill="#272717" d="M196.4 156.5h-3.3c-1.1 0-2 .9-2 2v3.2c0 1.1.9 2 2 2h3.3c1.1 0 2-.9 2-2v-3.2c0-1.1-.9-2-2-2zM498 28.4h3.3c1.1 0 2 .9 2 2v3.2c0 1.1-.9 2-2 2H498c-1.1 0-2-.9-2-2v-3.2c0-1.1.9-2 2-2z"/><path fill="#9B9F0A" d="M498 85.3h3.3c1.1 0 2 .9 2 2v3.2c0 1.1-.9 2-2 2H498c-1.1 0-2-.9-2-2v-3.2c0-1.1.9-2 2-2z"/><path fill="#272717" d="M498 113.7h3.3c1.1 0 2 .9 2 2v3.2c0 1.1-.9 2-2 2H498c-1.1 0-2-.9-2-2v-3.2c0-1.1.9-2 2-2z"/><path fill="#F9FF00" d="M527.1 14.3h3.3c1.1 0 2 .9 2 2v3.2c0 1.1-.9 2-2 2h-3.3c-1.1 0-2-.9-2-2v-3.2c0-1.1.9-2 2-2z"/><path fill="#9B9F0A" d="M483.4 42.8h3.3c1.1 0 2 .9 2 2V48c0 1.1-.9 2-2 2h-3.3c-1.1 0-2-.9-2-2v-3.2c0-1.1.9-2 2-2z"/><path fill="#6E700F" d="M483.4 99.6h3.3c1.1 0 2 .9 2 2v3.2c0 1.1-.9 2-2 2h-3.3c-1.1 0-2-.9-2-2v-3.2c0-1.1.9-2 2-2z"/><path fill="#272717" d="M498 142.2h3.3c1.1 0 2 .9 2 2v3.2c0 1.1-.9 2-2 2H498c-1.1 0-2-.9-2-2v-3.2c0-1.1.9-2 2-2zm-14.6-14.1h3.3c1.1 0 2 .9 2 2v3.2c0 1.1-.9 2-2 2h-3.3c-1.1 0-2-.9-2-2v-3.2c0-1.1.9-2 2-2z"/><path fill="#6E700F" d="M512.4 156.5h3.3c1.1 0 2 .9 2 2v3.2c0 1.1-.9 2-2 2h-3.3c-1.1 0-2-.9-2-2v-3.2c0-1.1.9-2 2-2zm0-28.4h3.3c1.1 0 2 .9 2 2v3.2c0 1.1-.9 2-2 2h-3.3c-1.1 0-2-.9-2-2v-3.2c0-1.1.9-2 2-2z"/><path fill="#272717" d="M469 85.3h3.3c1.1 0 2 .9 2 2v3.2c0 1.1-.9 2-2 2H469c-1.1 0-2-.9-2-2v-3.2c0-1.1.9-2 2-2z"/><path fill="#9B9F0A" d="M527.1 0h3.3c1.1 0 2 .9 2 2v3.2c0 1.1-.9 2-2 2h-3.3c-1.1 0-2-.9-2-2V2c0-1.1.9-2 2-2z"/><path fill="#272717" d="M512.4 14.3h3.3c1.1 0 2 .9 2 2v3.2c0 1.1-.9 2-2 2h-3.3c-1.1 0-2-.9-2-2v-3.2c0-1.1.9-2 2-2z"/><path fill="#F9FF00" d="M498 156.5h3.3c1.1 0 2 .9 2 2v3.2c0 1.1-.9 2-2 2H498c-1.1 0-2-.9-2-2v-3.2c0-1.1.9-2 2-2z"/><path fill="#272717" d="M512.4 99.6h3.3c1.1 0 2 .9 2 2v3.2c0 1.1-.9 2-2 2h-3.3c-1.1 0-2-.9-2-2v-3.2c0-1.1.9-2 2-2zm0-56.8h3.3c1.1 0 2 .9 2 2V48c0 1.1-.9 2-2 2h-3.3c-1.1 0-2-.9-2-2v-3.2c0-1.1.9-2 2-2zm-29 142.1h3.3c1.1 0 2 .9 2 2v3.2c0 1.1-.9 2-2 2h-3.3c-1.1 0-2-.9-2-2v-3.2c0-1.1.9-2 2-2zm-58.1 0h3.3c1.1 0 2 .9 2 2v3.2c0 1.1-.9 2-2 2h-3.3c-1.1 0-2-.9-2-2v-3.2c0-1.1.9-2 2-2z"/><path fill="#9B9F0A" d="M425.3 170.6h3.3c1.1 0 2 .9 2 2v3.2c0 1.1-.9 2-2 2h-3.3c-1.1 0-2-.9-2-2v-3.2c0-1.1.9-2 2-2z"/><path fill="#272717" d="M425.3 156.5h3.3c1.1 0 2 .9 2 2v3.2c0 1.1-.9 2-2 2h-3.3c-1.1 0-2-.9-2-2v-3.2c0-1.1.9-2 2-2zM440 56.9h3.3c1.1 0 2 .9 2 2V62c0 1.1-.9 2-2 2H440c-1.1 0-2-.9-2-2v-3.2c0-1 .9-1.9 2-1.9z"/><path fill="#6E700F" d="M425.3 42.8h3.3c1.1 0 2 .9 2 2V48c0 1.1-.9 2-2 2h-3.3c-1.1 0-2-.9-2-2v-3.2c0-1.1.9-2 2-2zm0 56.8h3.3c1.1 0 2 .9 2 2v3.2c0 1.1-.9 2-2 2h-3.3c-1.1 0-2-.9-2-2v-3.2c0-1.1.9-2 2-2z"/><path fill="#272717" d="M425.3 71.2h3.3c1.1 0 2 .9 2 2v3.2c0 1.1-.9 2-2 2h-3.3c-1.1 0-2-.9-2-2v-3.2c0-1.1.9-2 2-2zM440 85.3h3.3c1.1 0 2 .9 2 2v3.2c0 1.1-.9 2-2 2H440c-1.1 0-2-.9-2-2v-3.2c0-1.1.9-2 2-2zm14.4-42.5h3.3c1.1 0 2 .9 2 2V48c0 1.1-.9 2-2 2h-3.3c-1.1 0-2-.9-2-2v-3.2c0-1.1.9-2 2-2z"/><path fill="#3F4014" d="M454.4 99.6h3.3c1.1 0 2 .9 2 2v3.2c0 1.1-.9 2-2 2h-3.3c-1.1 0-2-.9-2-2v-3.2c0-1.1.9-2 2-2z"/><path fill="#272717" d="M454.4 156.5h3.3c1.1 0 2 .9 2 2v3.2c0 1.1-.9 2-2 2h-3.3c-1.1 0-2-.9-2-2v-3.2c0-1.1.9-2 2-2z"/><path fill="#6E700F" d="M440 170.6h3.3c1.1 0 2 .9 2 2v3.2c0 1.1-.9 2-2 2H440c-1.1 0-2-.9-2-2v-3.2c0-1.1.9-2 2-2zm0-56.9h3.3c1.1 0 2 .9 2 2v3.2c0 1.1-.9 2-2 2H440c-1.1 0-2-.9-2-2v-3.2c0-1.1.9-2 2-2zm14.4 71.2h3.3c1.1 0 2 .9 2 2v3.2c0 1.1-.9 2-2 2h-3.3c-1.1 0-2-.9-2-2v-3.2c0-1.1.9-2 2-2z"/><path fill="#272717" d="M614.2 0h3.3c1.1 0 2 .9 2 2v3.2c0 1.1-.9 2-2 2h-3.3c-1.1 0-2-.9-2-2V2c0-1.1.9-2 2-2zm-14.7 156.5h3.3c1.1 0 2 .9 2 2v3.2c0 1.1-.9 2-2 2h-3.3c-1.1 0-2-.9-2-2v-3.2c0-1.1.9-2 2-2zm14.7-128.1h3.3c1.1 0 2 .9 2 2v3.2c0 1.1-.9 2-2 2h-3.3c-1.1 0-2-.9-2-2v-3.2c0-1.1.9-2 2-2z"/><path fill="#3F4014" d="M614.2 56.9h3.3c1.1 0 2 .9 2 2V62c0 1.1-.9 2-2 2h-3.3c-1.1 0-2-.9-2-2v-3.2c0-1 .9-1.9 2-1.9z"/><path fill="#272717" d="M527.1 28.4h3.3c1.1 0 2 .9 2 2v3.2c0 1.1-.9 2-2 2h-3.3c-1.1 0-2-.9-2-2v-3.2c0-1.1.9-2 2-2zm72.4 71.2h3.3c1.1 0 2 .9 2 2v3.2c0 1.1-.9 2-2 2h-3.3c-1.1 0-2-.9-2-2v-3.2c0-1.1.9-2 2-2zm-14.4-42.7h3.3c1.1 0 2 .9 2 2V62c0 1.1-.9 2-2 2h-3.3c-1.1 0-2-.9-2-2v-3.2c0-1 .9-1.9 2-1.9z"/><path fill="#6E700F" d="M599.5 71.2h3.3c1.1 0 2 .9 2 2v3.2c0 1.1-.9 2-2 2h-3.3c-1.1 0-2-.9-2-2v-3.2c0-1.1.9-2 2-2z"/><path fill="#F9FF00" d="M614.2 85.3h3.3c1.1 0 2 .9 2 2v3.2c0 1.1-.9 2-2 2h-3.3c-1.1 0-2-.9-2-2v-3.2c0-1.1.9-2 2-2z"/><path fill="#3F4014" d="M628.6 99.6h3.3c1.1 0 2 .9 2 2v3.2c0 1.1-.9 2-2 2h-3.3c-1.1 0-2-.9-2-2v-3.2c0-1.1.9-2 2-2z"/><path fill="#9B9F0A" d="M628.6 156.5h3.3c1.1 0 2 .9 2 2v3.2c0 1.1-.9 2-2 2h-3.3c-1.1 0-2-.9-2-2v-3.2c0-1.1.9-2 2-2z"/><path fill="#272717" d="M614.2 113.7h3.3c1.1 0 2 .9 2 2v3.2c0 1.1-.9 2-2 2h-3.3c-1.1 0-2-.9-2-2v-3.2c0-1.1.9-2 2-2z"/><path fill="#9B9F0A" d="M628.6 85.3h3.3c1.1 0 2 .9 2 2v3.2c0 1.1-.9 2-2 2h-3.3c-1.1 0-2-.9-2-2v-3.2c0-1.1.9-2 2-2z"/><path fill="#F9FF00" d="M614.2 142.2h3.3c1.1 0 2 .9 2 2v3.2c0 1.1-.9 2-2 2h-3.3c-1.1 0-2-.9-2-2v-3.2c0-1.1.9-2 2-2z"/><path fill="#6E700F" d="M628.6 71.2h3.3c1.1 0 2 .9 2 2v3.2c0 1.1-.9 2-2 2h-3.3c-1.1 0-2-.9-2-2v-3.2c0-1.1.9-2 2-2z"/><path fill="#272717" d="M614.2 170.6h3.3c1.1 0 2 .9 2 2v3.2c0 1.1-.9 2-2 2h-3.3c-1.1 0-2-.9-2-2v-3.2c0-1.1.9-2 2-2zm-29.1-85.3h3.3c1.1 0 2 .9 2 2v3.2c0 1.1-.9 2-2 2h-3.3c-1.1 0-2-.9-2-2v-3.2c0-1.1.9-2 2-2z"/><path fill="#F9FF00" d="M527.1 128.1h3.3c1.1 0 2 .9 2 2v3.2c0 1.1-.9 2-2 2h-3.3c-1.1 0-2-.9-2-2v-3.2c0-1.1.9-2 2-2z"/><path fill="#6E700F" d="M527.1 156.5h3.3c1.1 0 2 .9 2 2v3.2c0 1.1-.9 2-2 2h-3.3c-1.1 0-2-.9-2-2v-3.2c0-1.1.9-2 2-2z"/><path fill="#F9FF00" d="M541.5 42.8h3.3c1.1 0 2 .9 2 2V48c0 1.1-.9 2-2 2h-3.3c-1.1 0-2-.9-2-2v-3.2c0-1.1.9-2 2-2z"/><path fill="#272717" d="M541.5 14.3h3.3c1.1 0 2 .9 2 2v3.2c0 1.1-.9 2-2 2h-3.3c-1.1 0-2-.9-2-2v-3.2c0-1.1.9-2 2-2zm-14.4 170.6h3.3c1.1 0 2 .9 2 2v3.2c0 1.1-.9 2-2 2h-3.3c-1.1 0-2-.9-2-2v-3.2c0-1.1.9-2 2-2zM585.1 0h3.3c1.1 0 2 .9 2 2v3.2c0 1.1-.9 2-2 2h-3.3c-1.1 0-2-.9-2-2V2c0-1.1.9-2 2-2zm-58 71.2h3.3c1.1 0 2 .9 2 2v3.2c0 1.1-.9 2-2 2h-3.3c-1.1 0-2-.9-2-2v-3.2c0-1.1.9-2 2-2z"/><path fill="#6E700F" d="M527.1 85.3h3.3c1.1 0 2 .9 2 2v3.2c0 1.1-.9 2-2 2h-3.3c-1.1 0-2-.9-2-2v-3.2c0-1.1.9-2 2-2z"/><path fill="#272717" d="M527.1 113.7h3.3c1.1 0 2 .9 2 2v3.2c0 1.1-.9 2-2 2h-3.3c-1.1 0-2-.9-2-2v-3.2c0-1.1.9-2 2-2zm29-28.4h3.3c1.1 0 2 .9 2 2v3.2c0 1.1-.9 2-2 2h-3.3c-1.1 0-2-.9-2-2v-3.2c0-1.1.9-2 2-2z"/><path fill="#9B9F0A" d="M556.1 42.8h3.3c1.1 0 2 .9 2 2V48c0 1.1-.9 2-2 2h-3.3c-1.1 0-2-.9-2-2v-3.2c0-1.1.9-2 2-2z"/><path fill="#272717" d="M541.5 99.6h3.3c1.1 0 2 .9 2 2v3.2c0 1.1-.9 2-2 2h-3.3c-1.1 0-2-.9-2-2v-3.2c0-1.1.9-2 2-2zm29 56.9h3.3c1.1 0 2 .9 2 2v3.2c0 1.1-.9 2-2 2h-3.3c-1.1 0-2-.9-2-2v-3.2c0-1.1.9-2 2-2z"/><path fill="#6E700F" d="M541.5 128.1h3.3c1.1 0 2 .9 2 2v3.2c0 1.1-.9 2-2 2h-3.3c-1.1 0-2-.9-2-2v-3.2c0-1.1.9-2 2-2z"/><path fill="#272717" d="M541.5 184.9h3.3c1.1 0 2 .9 2 2v3.2c0 1.1-.9 2-2 2h-3.3c-1.1 0-2-.9-2-2v-3.2c0-1.1.9-2 2-2zm0-28.4h3.3c1.1 0 2 .9 2 2v3.2c0 1.1-.9 2-2 2h-3.3c-1.1 0-2-.9-2-2v-3.2c0-1.1.9-2 2-2z"/><path fill="#9B9F0A" d="M628.6 42.8h3.3c1.1 0 2 .9 2 2V48c0 1.1-.9 2-2 2h-3.3c-1.1 0-2-.9-2-2v-3.2c0-1.1.9-2 2-2z"/><path fill="#272717" d="M222.1 184.9h3.3c1.1 0 2 .9 2 2v3.2c0 1.1-.9 2-2 2h-3.3c-1.1 0-2-.9-2-2v-3.2c0-1.1.9-2 2-2z"/><path fill="#6E700F" d="M236.7 170.6h3.3c1.1 0 2 .9 2 2v3.2c0 1.1-.9 2-2 2h-3.3c-1.1 0-2-.9-2-2v-3.2c0-1.1.9-2 2-2z"/><path fill="#F9FF00" d="M193.1 184.9h3.3c1.1 0 2 .9 2 2v3.2c0 1.1-.9 2-2 2h-3.3c-1.1 0-2-.9-2-2v-3.2c0-1.1.9-2 2-2z"/><path fill="#6E700F" d="M207.7 170.6h3.3c1.1 0 2 .9 2 2v3.2c0 1.1-.9 2-2 2h-3.3c-1.1 0-2-.9-2-2v-3.2c0-1.1.9-2 2-2z"/><path fill="#272717" d="M280.2 184.9h3.3c1.1 0 2 .9 2 2v3.2c0 1.1-.9 2-2 2h-3.3c-1.1 0-2-.9-2-2v-3.2c0-1.1.9-2 2-2zm-14.4-28.4h3.3c1.1 0 2 .9 2 2v3.2c0 1.1-.9 2-2 2h-3.3c-1.1 0-2-.9-2-2v-3.2c0-1.1.9-2 2-2zm-14.7 28.4h3.3c1.1 0 2 .9 2 2v3.2c0 1.1-.9 2-2 2h-3.3c-1.1 0-2-.9-2-2v-3.2c0-1.1.9-2 2-2zm-145.1 0h3.3c1.1 0 2 .9 2 2v3.2c0 1.1-.9 2-2 2H106c-1.1 0-2-.9-2-2v-3.2c0-1.1.9-2 2-2zm-29.1 0h3.3c1.1 0 2 .9 2 2v3.2c0 1.1-.9 2-2 2h-3.3c-1.1 0-2-.9-2-2v-3.2c0-1.1.9-2 2-2z"/><path fill="#F9FF00" d="M120.6 184.9h3.3c1.1 0 2 .9 2 2v3.2c0 1.1-.9 2-2 2h-3.3c-1.1 0-2-.9-2-2v-3.2c0-1.1.9-2 2-2z"/><path fill="#272717" d="M410.9 170.6h3.3c1.1 0 2 .9 2 2v3.2c0 1.1-.9 2-2 2h-3.3c-1.1 0-2-.9-2-2v-3.2c0-1.1.9-2 2-2z"/><path fill="#F9FF00" d="M47.9 184.9h3.3c1.1 0 2 .9 2 2v3.2c0 1.1-.9 2-2 2h-3.3c-1.1 0-2-.9-2-2v-3.2c0-1.1.9-2 2-2z"/><path fill="#272717" d="M135 14.3h3.3c1.1 0 2 .9 2 2v3.2c0 1.1-.9 2-2 2H135c-1.1 0-2-.9-2-2v-3.2c0-1.1.9-2 2-2z"/><path fill="#F9FF00" d="M149.6 170.6h3.3c1.1 0 2 .9 2 2v3.2c0 1.1-.9 2-2 2h-3.3c-1.1 0-2-.9-2-2v-3.2c0-1.1.9-2 2-2z"/><path fill="#3F4014" d="M47.9 156.5h3.3c1.1 0 2 .9 2 2v3.2c0 1.1-.9 2-2 2h-3.3c-1.1 0-2-.9-2-2v-3.2c0-1.1.9-2 2-2z"/><path fill="#9B9F0A" d="M381.9 113.7h3.3c1.1 0 2 .9 2 2v3.2c0 1.1-.9 2-2 2h-3.3c-1.1 0-2-.9-2-2v-3.2c0-1.1.9-2 2-2z"/><path fill="#272717" d="M367.3 184.9h3.3c1.1 0 2 .9 2 2v3.2c0 1.1-.9 2-2 2h-3.3c-1.1 0-2-.9-2-2v-3.2c0-1.1.9-2 2-2zm-14.4-71.2h3.3c1.1 0 2 .9 2 2v3.2c0 1.1-.9 2-2 2h-3.3c-1.1 0-2-.9-2-2v-3.2c0-1.1.9-2 2-2zm0 28.5h3.3c1.1 0 2 .9 2 2v3.2c0 1.1-.9 2-2 2h-3.3c-1.1 0-2-.9-2-2v-3.2c0-1.1.9-2 2-2z"/><path fill="#F9FF00" d="M352.9 170.6h3.3c1.1 0 2 .9 2 2v3.2c0 1.1-.9 2-2 2h-3.3c-1.1 0-2-.9-2-2v-3.2c0-1.1.9-2 2-2z"/><path fill="#9B9F0A" d="M367.3 128.1h3.3c1.1 0 2 .9 2 2v3.2c0 1.1-.9 2-2 2h-3.3c-1.1 0-2-.9-2-2v-3.2c0-1.1.9-2 2-2z"/><path fill="#272717" d="M381.9 142.2h3.3c1.1 0 2 .9 2 2v3.2c0 1.1-.9 2-2 2h-3.3c-1.1 0-2-.9-2-2v-3.2c0-1.1.9-2 2-2z"/><path fill="#F9FF00" d="M396.3 42.8h3.3c1.1 0 2 .9 2 2V48c0 1.1-.9 2-2 2h-3.3c-1.1 0-2-.9-2-2v-3.2c0-1.1.9-2 2-2z"/><path fill="#272717" d="M410.9 113.7h3.3c1.1 0 2 .9 2 2v3.2c0 1.1-.9 2-2 2h-3.3c-1.1 0-2-.9-2-2v-3.2c0-1.1.9-2 2-2zm0-28.4h3.3c1.1 0 2 .9 2 2v3.2c0 1.1-.9 2-2 2h-3.3c-1.1 0-2-.9-2-2v-3.2c0-1.1.9-2 2-2zm-14.6-14.1h3.3c1.1 0 2 .9 2 2v3.2c0 1.1-.9 2-2 2h-3.3c-1.1 0-2-.9-2-2v-3.2c0-1.1.9-2 2-2z"/><path fill="#F9FF00" d="M396.3 128.1h3.3c1.1 0 2 .9 2 2v3.2c0 1.1-.9 2-2 2h-3.3c-1.1 0-2-.9-2-2v-3.2c0-1.1.9-2 2-2z"/><path fill="#272717" d="M396.3 184.9h3.3c1.1 0 2 .9 2 2v3.2c0 1.1-.9 2-2 2h-3.3c-1.1 0-2-.9-2-2v-3.2c0-1.1.9-2 2-2z"/><path fill="#9B9F0A" d="M309.2 156.5h3.3c1.1 0 2 .9 2 2v3.2c0 1.1-.9 2-2 2h-3.3c-1.1 0-2-.9-2-2v-3.2c0-1.1.9-2 2-2z"/><path fill="#272717" d="M323.8 170.6h3.3c1.1 0 2 .9 2 2v3.2c0 1.1-.9 2-2 2h-3.3c-1.1 0-2-.9-2-2v-3.2c0-1.1.9-2 2-2z"/><path fill="#F9FF00" d="M323.8 142.2h3.3c1.1 0 2 .9 2 2v3.2c0 1.1-.9 2-2 2h-3.3c-1.1 0-2-.9-2-2v-3.2c0-1.1.9-2 2-2z"/><path fill="#272717" d="M294.8 128.1h3.3c1.1 0 2 .9 2 2v3.2c0 1.1-.9 2-2 2h-3.3c-1.1 0-2-.9-2-2v-3.2c0-1.1.9-2 2-2zm14.4 56.8h3.3c1.1 0 2 .9 2 2v3.2c0 1.1-.9 2-2 2h-3.3c-1.1 0-2-.9-2-2v-3.2c0-1.1.9-2 2-2z"/><path fill="#6E700F" d="M294.8 170.6h3.3c1.1 0 2 .9 2 2v3.2c0 1.1-.9 2-2 2h-3.3c-1.1 0-2-.9-2-2v-3.2c0-1.1.9-2 2-2z"/><path fill="#9B9F0A" d="M309.2 99.6h3.3c1.1 0 2 .9 2 2v3.2c0 1.1-.9 2-2 2h-3.3c-1.1 0-2-.9-2-2v-3.2c0-1.1.9-2 2-2z"/><path fill="#6E700F" d="M338.2 184.9h3.3c1.1 0 2 .9 2 2v3.2c0 1.1-.9 2-2 2h-3.3c-1.1 0-2-.9-2-2v-3.2c0-1.1.9-2 2-2z"/><path fill="#9B9F0A" d="M352.9 85.3h3.3c1.1 0 2 .9 2 2v3.2c0 1.1-.9 2-2 2h-3.3c-1.1 0-2-.9-2-2v-3.2c0-1.1.9-2 2-2zm-14.7 71.2h3.3c1.1 0 2 .9 2 2v3.2c0 1.1-.9 2-2 2h-3.3c-1.1 0-2-.9-2-2v-3.2c0-1.1.9-2 2-2zm0-85.3h3.3c1.1 0 2 .9 2 2v3.2c0 1.1-.9 2-2 2h-3.3c-1.1 0-2-.9-2-2v-3.2c0-1.1.9-2 2-2z"/><path fill="#272717" d="M338.2 128.1h3.3c1.1 0 2 .9 2 2v3.2c0 1.1-.9 2-2 2h-3.3c-1.1 0-2-.9-2-2v-3.2c0-1.1.9-2 2-2zm0-28.5h3.3c1.1 0 2 .9 2 2v3.2c0 1.1-.9 2-2 2h-3.3c-1.1 0-2-.9-2-2v-3.2c0-1.1.9-2 2-2z"/><path fill="#3F4014" d="M774.6 28.4h-3.3c-1.1 0-2 .9-2 2v3.2c0 1.1.9 2 2 2h3.3c1.1 0 2-.9 2-2v-3.2c0-1.1-.9-2-2-2z"/><path fill="#272717" d="M774.6 85.3h-3.3c-1.1 0-2 .9-2 2v3.2c0 1.1.9 2 2 2h3.3c1.1 0 2-.9 2-2v-3.2c0-1.1-.9-2-2-2z"/><path fill="#F9FF00" d="M774.6 113.7h-3.3c-1.1 0-2 .9-2 2v3.2c0 1.1.9 2 2 2h3.3c1.1 0 2-.9 2-2v-3.2c0-1.1-.9-2-2-2zm-29-99.4h-3.3c-1.1 0-2 .9-2 2v3.2c0 1.1.9 2 2 2h3.3c1.1 0 2-.9 2-2v-3.2c0-1.1-.9-2-2-2z"/><path fill="#272717" d="M789.3 42.8H786c-1.1 0-2 .9-2 2V48c0 1.1.9 2 2 2h3.3c1.1 0 2-.9 2-2v-3.2c0-1.1-.9-2-2-2z"/><path fill="#F9FF00" d="M789.3 99.6H786c-1.1 0-2 .9-2 2v3.2c0 1.1.9 2 2 2h3.3c1.1 0 2-.9 2-2v-3.2c0-1.1-.9-2-2-2z"/><path fill="#272717" d="M774.6 142.2h-3.3c-1.1 0-2 .9-2 2v3.2c0 1.1.9 2 2 2h3.3c1.1 0 2-.9 2-2v-3.2c0-1.1-.9-2-2-2zm14.7-14.1H786c-1.1 0-2 .9-2 2v3.2c0 1.1.9 2 2 2h3.3c1.1 0 2-.9 2-2v-3.2c0-1.1-.9-2-2-2z"/><path fill="#9B9F0A" d="M760.2 156.5h-3.3c-1.1 0-2 .9-2 2v3.2c0 1.1.9 2 2 2h3.3c1.1 0 2-.9 2-2v-3.2c0-1.1-.9-2-2-2z"/><path fill="#272717" d="M760.2 128.1h-3.3c-1.1 0-2 .9-2 2v3.2c0 1.1.9 2 2 2h3.3c1.1 0 2-.9 2-2v-3.2c0-1.1-.9-2-2-2zm43.5-42.8h-3.3c-1.1 0-2 .9-2 2v3.2c0 1.1.9 2 2 2h3.3c1.1 0 2-.9 2-2v-3.2c0-1.1-.9-2-2-2zM745.6 0h-3.3c-1.1 0-2 .9-2 2v3.2c0 1.1.9 2 2 2h3.3c1.1 0 2-.9 2-2V2c0-1.1-.9-2-2-2z"/><path fill="#9B9F0A" d="M760.2 14.3h-3.3c-1.1 0-2 .9-2 2v3.2c0 1.1.9 2 2 2h3.3c1.1 0 2-.9 2-2v-3.2c0-1.1-.9-2-2-2z"/><path fill="#F9FF00" d="M774.6 156.5h-3.3c-1.1 0-2 .9-2 2v3.2c0 1.1.9 2 2 2h3.3c1.1 0 2-.9 2-2v-3.2c0-1.1-.9-2-2-2z"/><path fill="#272717" d="M760.2 99.6h-3.3c-1.1 0-2 .9-2 2v3.2c0 1.1.9 2 2 2h3.3c1.1 0 2-.9 2-2v-3.2c0-1.1-.9-2-2-2zm0-56.8h-3.3c-1.1 0-2 .9-2 2V48c0 1.1.9 2 2 2h3.3c1.1 0 2-.9 2-2v-3.2c0-1.1-.9-2-2-2zm29.1 142.1H786c-1.1 0-2 .9-2 2v3.2c0 1.1.9 2 2 2h3.3c1.1 0 2-.9 2-2v-3.2c0-1.1-.9-2-2-2z"/><path fill="#F9FF00" d="M847.3 184.9H844c-1.1 0-2 .9-2 2v3.2c0 1.1.9 2 2 2h3.3c1.1 0 2-.9 2-2v-3.2c0-1.1-.9-2-2-2zm0-14.3H844c-1.1 0-2 .9-2 2v3.2c0 1.1.9 2 2 2h3.3c1.1 0 2-.9 2-2v-3.2c0-1.1-.9-2-2-2z"/><path fill="#272717" d="M847.3 156.5H844c-1.1 0-2 .9-2 2v3.2c0 1.1.9 2 2 2h3.3c1.1 0 2-.9 2-2v-3.2c0-1.1-.9-2-2-2z"/><path fill="#6E700F" d="M847.3 14.3H844c-1.1 0-2 .9-2 2v3.2c0 1.1.9 2 2 2h3.3c1.1 0 2-.9 2-2v-3.2c0-1.1-.9-2-2-2z"/><path fill="#272717" d="M832.7 56.9h-3.3c-1.1 0-2 .9-2 2V62c0 1.1.9 2 2 2h3.3c1.1 0 2-.9 2-2v-3.2c0-1-.9-1.9-2-1.9zm14.6-14.1H844c-1.1 0-2 .9-2 2V48c0 1.1.9 2 2 2h3.3c1.1 0 2-.9 2-2v-3.2c0-1.1-.9-2-2-2z"/><path fill="#F9FF00" d="M847.3 99.6H844c-1.1 0-2 .9-2 2v3.2c0 1.1.9 2 2 2h3.3c1.1 0 2-.9 2-2v-3.2c0-1.1-.9-2-2-2z"/><path fill="#3F4014" d="M847.3 71.2H844c-1.1 0-2 .9-2 2v3.2c0 1.1.9 2 2 2h3.3c1.1 0 2-.9 2-2v-3.2c0-1.1-.9-2-2-2z"/><path fill="#9B9F0A" d="M832.7 85.3h-3.3c-1.1 0-2 .9-2 2v3.2c0 1.1.9 2 2 2h3.3c1.1 0 2-.9 2-2v-3.2c0-1.1-.9-2-2-2z"/><path fill="#272717" d="M818.3 42.8H815c-1.1 0-2 .9-2 2V48c0 1.1.9 2 2 2h3.3c1.1 0 2-.9 2-2v-3.2c0-1.1-.9-2-2-2zm0 56.8H815c-1.1 0-2 .9-2 2v3.2c0 1.1.9 2 2 2h3.3c1.1 0 2-.9 2-2v-3.2c0-1.1-.9-2-2-2zm0 56.9H815c-1.1 0-2 .9-2 2v3.2c0 1.1.9 2 2 2h3.3c1.1 0 2-.9 2-2v-3.2c0-1.1-.9-2-2-2zm14.4 14.1h-3.3c-1.1 0-2 .9-2 2v3.2c0 1.1.9 2 2 2h3.3c1.1 0 2-.9 2-2v-3.2c0-1.1-.9-2-2-2z"/><path fill="#9B9F0A" d="M832.7 113.7h-3.3c-1.1 0-2 .9-2 2v3.2c0 1.1.9 2 2 2h3.3c1.1 0 2-.9 2-2v-3.2c0-1.1-.9-2-2-2z"/><path fill="#272717" d="M818.3 184.9H815c-1.1 0-2 .9-2 2v3.2c0 1.1.9 2 2 2h3.3c1.1 0 2-.9 2-2v-3.2c0-1.1-.9-2-2-2zm0-170.6H815c-1.1 0-2 .9-2 2v3.2c0 1.1.9 2 2 2h3.3c1.1 0 2-.9 2-2v-3.2c0-1.1-.9-2-2-2zm14.4 14.1h-3.3c-1.1 0-2 .9-2 2v3.2c0 1.1.9 2 2 2h3.3c1.1 0 2-.9 2-2v-3.2c0-1.1-.9-2-2-2zM673.1 156.5h-3.3c-1.1 0-2 .9-2 2v3.2c0 1.1.9 2 2 2h3.3c1.1 0 2-.9 2-2v-3.2c0-1.1-.9-2-2-2z"/><path fill="#6E700F" d="M745.6 28.4h-3.3c-1.1 0-2 .9-2 2v3.2c0 1.1.9 2 2 2h3.3c1.1 0 2-.9 2-2v-3.2c0-1.1-.9-2-2-2z"/><path fill="#272717" d="M673.1 99.6h-3.3c-1.1 0-2 .9-2 2v3.2c0 1.1.9 2 2 2h3.3c1.1 0 2-.9 2-2v-3.2c0-1.1-.9-2-2-2zm14.4-42.7h-3.3c-1.1 0-2 .9-2 2V62c0 1.1.9 2 2 2h3.3c1.1 0 2-.9 2-2v-3.2c0-1-.9-1.9-2-1.9zm-14.4 14.3h-3.3c-1.1 0-2 .9-2 2v3.2c0 1.1.9 2 2 2h3.3c1.1 0 2-.9 2-2v-3.2c0-1.1-.9-2-2-2zm-14.6 14.1h-3.3c-1.1 0-2 .9-2 2v3.2c0 1.1.9 2 2 2h3.3c1.1 0 2-.9 2-2v-3.2c0-1.1-.9-2-2-2zm-14.4 14.3h-3.3c-1.1 0-2 .9-2 2v3.2c0 1.1.9 2 2 2h3.3c1.1 0 2-.9 2-2v-3.2c0-1.1-.9-2-2-2z"/><path fill="#6E700F" d="M644.1 156.5h-3.3c-1.1 0-2 .9-2 2v3.2c0 1.1.9 2 2 2h3.3c1.1 0 2-.9 2-2v-3.2c0-1.1-.9-2-2-2z"/><path fill="#272717" d="M658.5 113.7h-3.3c-1.1 0-2 .9-2 2v3.2c0 1.1.9 2 2 2h3.3c1.1 0 2-.9 2-2v-3.2c0-1.1-.9-2-2-2z"/><path fill="#6E700F" d="M644.1 85.3h-3.3c-1.1 0-2 .9-2 2v3.2c0 1.1.9 2 2 2h3.3c1.1 0 2-.9 2-2v-3.2c0-1.1-.9-2-2-2zm14.4 56.9h-3.3c-1.1 0-2 .9-2 2v3.2c0 1.1.9 2 2 2h3.3c1.1 0 2-.9 2-2v-3.2c0-1.1-.9-2-2-2z"/><path fill="#272717" d="M658.5 170.6h-3.3c-1.1 0-2 .9-2 2v3.2c0 1.1.9 2 2 2h3.3c1.1 0 2-.9 2-2v-3.2c0-1.1-.9-2-2-2zm29-85.3h-3.3c-1.1 0-2 .9-2 2v3.2c0 1.1.9 2 2 2h3.3c1.1 0 2-.9 2-2v-3.2c0-1.1-.9-2-2-2zm58.1 42.8h-3.3c-1.1 0-2 .9-2 2v3.2c0 1.1.9 2 2 2h3.3c1.1 0 2-.9 2-2v-3.2c0-1.1-.9-2-2-2z"/><path fill="#6E700F" d="M745.6 156.5h-3.3c-1.1 0-2 .9-2 2v3.2c0 1.1.9 2 2 2h3.3c1.1 0 2-.9 2-2v-3.2c0-1.1-.9-2-2-2z"/><path fill="#272717" d="M731.2 42.8h-3.3c-1.1 0-2 .9-2 2V48c0 1.1.9 2 2 2h3.3c1.1 0 2-.9 2-2v-3.2c0-1.1-.9-2-2-2zm0-28.5h-3.3c-1.1 0-2 .9-2 2v3.2c0 1.1.9 2 2 2h3.3c1.1 0 2-.9 2-2v-3.2c0-1.1-.9-2-2-2zm14.4 170.6h-3.3c-1.1 0-2 .9-2 2v3.2c0 1.1.9 2 2 2h3.3c1.1 0 2-.9 2-2v-3.2c0-1.1-.9-2-2-2zm0-113.7h-3.3c-1.1 0-2 .9-2 2v3.2c0 1.1.9 2 2 2h3.3c1.1 0 2-.9 2-2v-3.2c0-1.1-.9-2-2-2z"/><path fill="#3F4014" d="M745.6 85.3h-3.3c-1.1 0-2 .9-2 2v3.2c0 1.1.9 2 2 2h3.3c1.1 0 2-.9 2-2v-3.2c0-1.1-.9-2-2-2zm0 28.4h-3.3c-1.1 0-2 .9-2 2v3.2c0 1.1.9 2 2 2h3.3c1.1 0 2-.9 2-2v-3.2c0-1.1-.9-2-2-2z"/><path fill="#272717" d="M716.6 85.3h-3.3c-1.1 0-2 .9-2 2v3.2c0 1.1.9 2 2 2h3.3c1.1 0 2-.9 2-2v-3.2c0-1.1-.9-2-2-2zm0-42.5h-3.3c-1.1 0-2 .9-2 2V48c0 1.1.9 2 2 2h3.3c1.1 0 2-.9 2-2v-3.2c0-1.1-.9-2-2-2zm14.6 56.8h-3.3c-1.1 0-2 .9-2 2v3.2c0 1.1.9 2 2 2h3.3c1.1 0 2-.9 2-2v-3.2c0-1.1-.9-2-2-2zm-29 56.9h-3.3c-1.1 0-2 .9-2 2v3.2c0 1.1.9 2 2 2h3.3c1.1 0 2-.9 2-2v-3.2c0-1.1-.9-2-2-2zm29-28.4h-3.3c-1.1 0-2 .9-2 2v3.2c0 1.1.9 2 2 2h3.3c1.1 0 2-.9 2-2v-3.2c0-1.1-.9-2-2-2zm0 56.8h-3.3c-1.1 0-2 .9-2 2v3.2c0 1.1.9 2 2 2h3.3c1.1 0 2-.9 2-2v-3.2c0-1.1-.9-2-2-2z"/><path fill="#3F4014" d="M731.2 156.5h-3.3c-1.1 0-2 .9-2 2v3.2c0 1.1.9 2 2 2h3.3c1.1 0 2-.9 2-2v-3.2c0-1.1-.9-2-2-2z"/><path fill="#272717" d="M1050.6 184.9h-3.3c-1.1 0-2 .9-2 2v3.2c0 1.1.9 2 2 2h3.3c1.1 0 2-.9 2-2v-3.2c0-1.1-.9-2-2-2zm-29.1-170.6h-3.3c-1.1 0-2 .9-2 2v3.2c0 1.1.9 2 2 2h3.3c1.1 0 2-.9 2-2v-3.2c0-1.1-.9-2-2-2z"/><path fill="#6E700F" d="M1050.6 156.5h-3.3c-1.1 0-2 .9-2 2v3.2c0 1.1.9 2 2 2h3.3c1.1 0 2-.9 2-2v-3.2c0-1.1-.9-2-2-2z"/><path fill="#9B9F0A" d="M1035.9 170.6h-3.3c-1.1 0-2 .9-2 2v3.2c0 1.1.9 2 2 2h3.3c1.1 0 2-.9 2-2v-3.2c0-1.1-.9-2-2-2z"/><path fill="#272717" d="M1079.6 156.5h-3.3c-1.1 0-2 .9-2 2v3.2c0 1.1.9 2 2 2h3.3c1.1 0 2-.9 2-2v-3.2c0-1.1-.9-2-2-2zm-29-56.9h-3.3c-1.1 0-2 .9-2 2v3.2c0 1.1.9 2 2 2h3.3c1.1 0 2-.9 2-2v-3.2c0-1.1-.9-2-2-2zm29 85.3h-3.3c-1.1 0-2 .9-2 2v3.2c0 1.1.9 2 2 2h3.3c1.1 0 2-.9 2-2v-3.2c0-1.1-.9-2-2-2z"/><path fill="#3F4014" d="M1065 170.6h-3.3c-1.1 0-2 .9-2 2v3.2c0 1.1.9 2 2 2h3.3c1.1 0 2-.9 2-2v-3.2c0-1.1-.9-2-2-2z"/><path fill="#272717" d="M1035.9 142.2h-3.3c-1.1 0-2 .9-2 2v3.2c0 1.1.9 2 2 2h3.3c1.1 0 2-.9 2-2v-3.2c0-1.1-.9-2-2-2z"/><path fill="#3F4014" d="M1021.5 99.6h-3.3c-1.1 0-2 .9-2 2v3.2c0 1.1.9 2 2 2h3.3c1.1 0 2-.9 2-2v-3.2c0-1.1-.9-2-2-2z"/><path fill="#272717" d="M992.5 184.9h-3.3c-1.1 0-2 .9-2 2v3.2c0 1.1.9 2 2 2h3.3c1.1 0 2-.9 2-2v-3.2c0-1.1-.9-2-2-2z"/><path fill="#6E700F" d="M992.5 99.6h-3.3c-1.1 0-2 .9-2 2v3.2c0 1.1.9 2 2 2h3.3c1.1 0 2-.9 2-2v-3.2c0-1.1-.9-2-2-2z"/><path fill="#272717" d="M992.5 128.1h-3.3c-1.1 0-2 .9-2 2v3.2c0 1.1.9 2 2 2h3.3c1.1 0 2-.9 2-2v-3.2c0-1.1-.9-2-2-2z"/><path fill="#6E700F" d="M1021.5 156.5h-3.3c-1.1 0-2 .9-2 2v3.2c0 1.1.9 2 2 2h3.3c1.1 0 2-.9 2-2v-3.2c0-1.1-.9-2-2-2z"/><path fill="#272717" d="M1006.9 156.5h-3.3c-1.1 0-2 .9-2 2v3.2c0 1.1.9 2 2 2h3.3c1.1 0 2-.9 2-2v-3.2c0-1.1-.9-2-2-2zm14.6 28.4h-3.3c-1.1 0-2 .9-2 2v3.2c0 1.1.9 2 2 2h3.3c1.1 0 2-.9 2-2v-3.2c0-1.1-.9-2-2-2zm174.2-56.8h-3.3c-1.1 0-2 .9-2 2v3.2c0 1.1.9 2 2 2h3.3c1.1 0 2-.9 2-2v-3.2c0-1.1-.9-2-2-2z"/><path fill="#F9FF00" d="M1079.6 14.3h-3.3c-1.1 0-2 .9-2 2v3.2c0 1.1.9 2 2 2h3.3c1.1 0 2-.9 2-2v-3.2c0-1.1-.9-2-2-2z"/><path fill="#272717" d="M1166.7 128.1h-3.3c-1.1 0-2 .9-2 2v3.2c0 1.1.9 2 2 2h3.3c1.1 0 2-.9 2-2v-3.2c0-1.1-.9-2-2-2z"/><path fill="#F9FF00" d="M1166.7 184.9h-3.3c-1.1 0-2 .9-2 2v3.2c0 1.1.9 2 2 2h3.3c1.1 0 2-.9 2-2v-3.2c0-1.1-.9-2-2-2z"/><path fill="#272717" d="M1195.7 184.9h-3.3c-1.1 0-2 .9-2 2v3.2c0 1.1.9 2 2 2h3.3c1.1 0 2-.9 2-2v-3.2c0-1.1-.9-2-2-2zm-43.6 0h-3.3c-1.1 0-2 .9-2 2v3.2c0 1.1.9 2 2 2h3.3c1.1 0 2-.9 2-2v-3.2c0-1.1-.9-2-2-2z"/><path fill="#9B9F0A" d="M861.7 170.6h-3.3c-1.1 0-2 .9-2 2v3.2c0 1.1.9 2 2 2h3.3c1.1 0 2-.9 2-2v-3.2c0-1.1-.9-2-2-2z"/><path fill="#272717" d="M977.9 0h-3.3c-1.1 0-2 .9-2 2v3.2c0 1.1.9 2 2 2h3.3c1.1 0 2-.9 2-2V2c0-1.1-.9-2-2-2zm188.8 156.5h-3.3c-1.1 0-2 .9-2 2v3.2c0 1.1.9 2 2 2h3.3c1.1 0 2-.9 2-2v-3.2c0-1.1-.9-2-2-2z"/><path fill="#6E700F" d="M1137.7 14.3h-3.3c-1.1 0-2 .9-2 2v3.2c0 1.1.9 2 2 2h3.3c1.1 0 2-.9 2-2v-3.2c0-1.1-.9-2-2-2z"/><path fill="#272717" d="M1108.6 156.5h-3.3c-1.1 0-2 .9-2 2v3.2c0 1.1.9 2 2 2h3.3c1.1 0 2-.9 2-2v-3.2c0-1.1-.9-2-2-2z"/><path fill="#3F4014" d="M1094 142.2h-3.3c-1.1 0-2 .9-2 2v3.2c0 1.1.9 2 2 2h3.3c1.1 0 2-.9 2-2v-3.2c0-1.1-.9-2-2-2z"/><path fill="#9B9F0A" d="M1108.6 128.1h-3.3c-1.1 0-2 .9-2 2v3.2c0 1.1.9 2 2 2h3.3c1.1 0 2-.9 2-2v-3.2c0-1.1-.9-2-2-2z"/><path fill="#F9FF00" d="M1137.7 156.5h-3.3c-1.1 0-2 .9-2 2v3.2c0 1.1.9 2 2 2h3.3c1.1 0 2-.9 2-2v-3.2c0-1.1-.9-2-2-2z"/><path fill="#9B9F0A" d="M1123 170.6h-3.3c-1.1 0-2 .9-2 2v3.2c0 1.1.9 2 2 2h3.3c1.1 0 2-.9 2-2v-3.2c0-1.1-.9-2-2-2zm-14.4-156.3h-3.3c-1.1 0-2 .9-2 2v3.2c0 1.1.9 2 2 2h3.3c1.1 0 2-.9 2-2v-3.2c0-1.1-.9-2-2-2z"/><path fill="#272717" d="M890.8 0h-3.3c-1.1 0-2 .9-2 2v3.2c0 1.1.9 2 2 2h3.3c1.1 0 2-.9 2-2V2c0-1.1-.9-2-2-2zm0 113.7h-3.3c-1.1 0-2 .9-2 2v3.2c0 1.1.9 2 2 2h3.3c1.1 0 2-.9 2-2v-3.2c0-1.1-.9-2-2-2z"/><path fill="#F9FF00" d="M876.4 14.3h-3.3c-1.1 0-2 .9-2 2v3.2c0 1.1.9 2 2 2h3.3c1.1 0 2-.9 2-2v-3.2c0-1.1-.9-2-2-2z"/><path fill="#272717" d="M905.4 184.9h-3.3c-1.1 0-2 .9-2 2v3.2c0 1.1.9 2 2 2h3.3c1.1 0 2-.9 2-2v-3.2c0-1.1-.9-2-2-2zm14.4-71.2h-3.3c-1.1 0-2 .9-2 2v3.2c0 1.1.9 2 2 2h3.3c1.1 0 2-.9 2-2v-3.2c0-1.1-.9-2-2-2zm0 28.5h-3.3c-1.1 0-2 .9-2 2v3.2c0 1.1.9 2 2 2h3.3c1.1 0 2-.9 2-2v-3.2c0-1.1-.9-2-2-2z"/><path fill="#9B9F0A" d="M919.8 170.6h-3.3c-1.1 0-2 .9-2 2v3.2c0 1.1.9 2 2 2h3.3c1.1 0 2-.9 2-2v-3.2c0-1.1-.9-2-2-2z"/><path fill="#272717" d="M905.4 128.1h-3.3c-1.1 0-2 .9-2 2v3.2c0 1.1.9 2 2 2h3.3c1.1 0 2-.9 2-2v-3.2c0-1.1-.9-2-2-2zm-14.6 14.1h-3.3c-1.1 0-2 .9-2 2v3.2c0 1.1.9 2 2 2h3.3c1.1 0 2-.9 2-2v-3.2c0-1.1-.9-2-2-2z"/><path fill="#9B9F0A" d="M876.4 42.8h-3.3c-1.1 0-2 .9-2 2V48c0 1.1.9 2 2 2h3.3c1.1 0 2-.9 2-2v-3.2c0-1.1-.9-2-2-2zm-14.7-28.5h-3.3c-1.1 0-2 .9-2 2v3.2c0 1.1.9 2 2 2h3.3c1.1 0 2-.9 2-2v-3.2c0-1.1-.9-2-2-2z"/><path fill="#272717" d="M861.7 113.7h-3.3c-1.1 0-2 .9-2 2v3.2c0 1.1.9 2 2 2h3.3c1.1 0 2-.9 2-2v-3.2c0-1.1-.9-2-2-2z"/><path fill="#9B9F0A" d="M861.7 85.3h-3.3c-1.1 0-2 .9-2 2v3.2c0 1.1.9 2 2 2h3.3c1.1 0 2-.9 2-2v-3.2c0-1.1-.9-2-2-2z"/><path fill="#3F4014" d="M876.4 71.2h-3.3c-1.1 0-2 .9-2 2v3.2c0 1.1.9 2 2 2h3.3c1.1 0 2-.9 2-2v-3.2c0-1.1-.9-2-2-2zm0 56.9h-3.3c-1.1 0-2 .9-2 2v3.2c0 1.1.9 2 2 2h3.3c1.1 0 2-.9 2-2v-3.2c0-1.1-.9-2-2-2z"/><path fill="#272717" d="M876.4 184.9h-3.3c-1.1 0-2 .9-2 2v3.2c0 1.1.9 2 2 2h3.3c1.1 0 2-.9 2-2v-3.2c0-1.1-.9-2-2-2z"/><path fill="#3F4014" d="M963.5 156.5h-3.3c-1.1 0-2 .9-2 2v3.2c0 1.1.9 2 2 2h3.3c1.1 0 2-.9 2-2v-3.2c0-1.1-.9-2-2-2z"/><path fill="#F9FF00" d="M948.8 170.6h-3.3c-1.1 0-2 .9-2 2v3.2c0 1.1.9 2 2 2h3.3c1.1 0 2-.9 2-2v-3.2c0-1.1-.9-2-2-2z"/><path fill="#3F4014" d="M948.8 0h-3.3c-1.1 0-2 .9-2 2v3.2c0 1.1.9 2 2 2h3.3c1.1 0 2-.9 2-2V2c0-1.1-.9-2-2-2z"/><path fill="#272717" d="M948.8 142.2h-3.3c-1.1 0-2 .9-2 2v3.2c0 1.1.9 2 2 2h3.3c1.1 0 2-.9 2-2v-3.2c0-1.1-.9-2-2-2zm29.1-14.1h-3.3c-1.1 0-2 .9-2 2v3.2c0 1.1.9 2 2 2h3.3c1.1 0 2-.9 2-2v-3.2c0-1.1-.9-2-2-2z"/><path fill="#F9FF00" d="M963.5 184.9h-3.3c-1.1 0-2 .9-2 2v3.2c0 1.1.9 2 2 2h3.3c1.1 0 2-.9 2-2v-3.2c0-1.1-.9-2-2-2z"/><path fill="#272717" d="M977.9 170.6h-3.3c-1.1 0-2 .9-2 2v3.2c0 1.1.9 2 2 2h3.3c1.1 0 2-.9 2-2v-3.2c0-1.1-.9-2-2-2z"/><path fill="#3F4014" d="M963.5 14.3h-3.3c-1.1 0-2 .9-2 2v3.2c0 1.1.9 2 2 2h3.3c1.1 0 2-.9 2-2v-3.2c0-1.1-.9-2-2-2z"/><path fill="#9B9F0A" d="M963.5 99.6h-3.3c-1.1 0-2 .9-2 2v3.2c0 1.1.9 2 2 2h3.3c1.1 0 2-.9 2-2v-3.2c0-1.1-.9-2-2-2z"/><path fill="#272717" d="M934.4 184.9h-3.3c-1.1 0-2 .9-2 2v3.2c0 1.1.9 2 2 2h3.3c1.1 0 2-.9 2-2v-3.2c0-1.1-.9-2-2-2z"/><path fill="#3F4014" d="M919.8 85.3h-3.3c-1.1 0-2 .9-2 2v3.2c0 1.1.9 2 2 2h3.3c1.1 0 2-.9 2-2v-3.2c0-1.1-.9-2-2-2z"/><path fill="#9B9F0A" d="M919.8 0h-3.3c-1.1 0-2 .9-2 2v3.2c0 1.1.9 2 2 2h3.3c1.1 0 2-.9 2-2V2c0-1.1-.9-2-2-2z"/><path fill="#272717" d="M934.4 14.3h-3.3c-1.1 0-2 .9-2 2v3.2c0 1.1.9 2 2 2h3.3c1.1 0 2-.9 2-2v-3.2c0-1.1-.9-2-2-2z"/><path fill="#F9FF00" d="M934.4 156.5h-3.3c-1.1 0-2 .9-2 2v3.2c0 1.1.9 2 2 2h3.3c1.1 0 2-.9 2-2v-3.2c0-1.1-.9-2-2-2z"/><path fill="#272717" d="M934.4 71.2h-3.3c-1.1 0-2 .9-2 2v3.2c0 1.1.9 2 2 2h3.3c1.1 0 2-.9 2-2v-3.2c0-1.1-.9-2-2-2z"/><path fill="#9B9F0A" d="M934.4 128.1h-3.3c-1.1 0-2 .9-2 2v3.2c0 1.1.9 2 2 2h3.3c1.1 0 2-.9 2-2v-3.2c0-1.1-.9-2-2-2z"/><path fill="#F9FF00" d="M934.4 99.6h-3.3c-1.1 0-2 .9-2 2v3.2c0 1.1.9 2 2 2h3.3c1.1 0 2-.9 2-2v-3.2c0-1.1-.9-2-2-2z"/><path fill="#6E700F" d="M1134.3 184.9h3.3c1.1 0 2 .9 2 2v3.2c0 1.1-.9 2-2 2h-3.3c-1.1 0-2-.9-2-2v-3.2c0-1.1.9-2 2-2zm-29 0h3.3c1.1 0 2 .9 2 2v3.2c0 1.1-.9 2-2 2h-3.3c-1.1 0-2-.9-2-2v-3.2c0-1.1.9-2 2-2z"/><path fill="#9B9F0A" d="M1149 184.9h3.3c1.1 0 2 .9 2 2v3.2c0 1.1-.9 2-2 2h-3.3c-1.1 0-2-.9-2-2v-3.2c0-1.1.9-2 2-2z"/><path fill="#272717" d="M1076.3 184.9h3.3c1.1 0 2 .9 2 2v3.2c0 1.1-.9 2-2 2h-3.3c-1.1 0-2-.9-2-2v-3.2c0-1.1.9-2 2-2zm87.1-170.6h3.3c1.1 0 2 .9 2 2v3.2c0 1.1-.9 2-2 2h-3.3c-1.1 0-2-.9-2-2v-3.2c0-1.1.9-2 2-2z"/><path fill="#F9FF00" d="M1178 170.6h3.3c1.1 0 2 .9 2 2v3.2c0 1.1-.9 2-2 2h-3.3c-1.1 0-2-.9-2-2v-3.2c0-1.1.9-2 2-2z"/><path fill="#272717" d="M1076.3 156.5h3.3c1.1 0 2 .9 2 2v3.2c0 1.1-.9 2-2 2h-3.3c-1.1 0-2-.9-2-2v-3.2c0-1.1.9-2 2-2z"/></svg>