<svg xmlns="http://www.w3.org/2000/svg" width="822" height="411" fill="none">
<path fill="#6A3D7A" d="M447.8 394.2h-7c-2.8 0-5 2.2-5 5v6.6c0 2.8 2.2 5 5 5h7c2.8 0 5-2.2 5-5v-6.6c0-2.8-2.2-5-5-5z"/>
<path fill="#A123CF " d="M447.8 328.8h-7c-2.8 0-5 2.2-5 5v6.6c0 2.8 2.2 5 5 5h7c2.8 0 5-2.2 5-5v-6.6c0-2.8-2.2-5-5-5z"/>
<path fill="#493550" d="M447.8.8h-7c-2.8 0-5 2.2-5 5v6.6c0 2.8 2.2 5 5 5h7c2.8 0 5-2.2 5-5V5.8c0-2.8-2.2-5-5-5z"/>
<path fill="#6A3D7A" d="M447.8 263.4h-7c-2.8 0-5 2.2-5 5v6.6c0 2.8 2.2 5 5 5h7c2.8 0 5-2.2 5-5v-6.6c0-2.8-2.2-5-5-5z"/>
<path fill="#4b0082" d="M481.2 230.2h-7c-2.8 0-5 2.2-5 5v6.6c0 2.8 2.2 5 5 5h7c2.8 0 5-2.2 5-5v-6.6c0-2.8-2.2-5-5-5z"/>
<path fill="#6A3D7A" d="M481.2 296.1h-7c-2.8 0-5 2.2-5 5v6.6c0 2.8 2.2 5 5 5h7c2.8 0 5-2.2 5-5v-6.6c0-2.8-2.2-5-5-5z"/>
<path fill="#4b0082" d="M481.2 361.5h-7c-2.8 0-5 2.2-5 5v6.6c0 2.8 2.2 5 5 5h7c2.8 0 5-2.2 5-5v-6.6c0-2.8-2.2-5-5-5z"/>
<path fill="#493550" d="M514.6 394.2h-7c-2.8 0-5 2.2-5 5v6.6c0 2.8 2.2 5 5 5h7c2.8 0 5-2.2 5-5v-6.6c0-2.8-2.2-5-5-5z"/>
<path fill="#A123CF " d="M380.5 197.5h-7c-2.8 0-5 2.2-5 5v6.6c0 2.8 2.2 5 5 5h7c2.8 0 5-2.2 5-5v-6.6c0-2.8-2.2-5-5-5z"/>
<path fill="#B800FA" d="M380.5 328.8h-7c-2.8 0-5 2.2-5 5v6.6c0 2.8 2.2 5 5 5h7c2.8 0 5-2.2 5-5v-6.6c0-2.8-2.2-5-5-5z"/>
<path fill="#493550" d="M380.5.8h-7c-2.8 0-5 2.2-5 5v6.6c0 2.8 2.2 5 5 5h7c2.8 0 5-2.2 5-5V5.8c0-2.8-2.2-5-5-5z"/>
<path fill="#A123CF " d="M413.9 361.5h-7c-2.8 0-5 2.2-5 5v6.6c0 2.8 2.2 5 5 5h7c2.8 0 5-2.2 5-5v-6.6c0-2.8-2.2-5-5-5z"/>
<path fill="#4b0082" d="M413.9 394.2h-7c-2.8 0-5 2.2-5 5v6.6c0 2.8 2.2 5 5 5h7c2.8 0 5-2.2 5-5v-6.6c0-2.8-2.2-5-5-5z"/><path fill="#493550" d="M413.9 296.1h-7c-2.8 0-5 2.2-5 5v6.6c0 2.8 2.2 5 5 5h7c2.8 0 5-2.2 5-5v-6.6c0-2.8-2.2-5-5-5z"/><path fill="#B800FA" d="M548.1 230.2h-7c-2.8 0-5 2.2-5 5v6.6c0 2.8 2.2 5 5 5h7c2.8 0 5-2.2 5-5v-6.6c0-2.8-2.3-5-5-5z"/><path fill="#4b0082" d="M581.5.8h-7c-2.8 0-5 2.2-5 5v6.6c0 2.8 2.2 5 5 5h7c2.8 0 5-2.2 5-5V5.8c0-2.8-2.3-5-5-5z"/><path fill="#6A3D7A" d="M581.5 66.2h-7c-2.8 0-5 2.2-5 5v6.6c0 2.8 2.2 5 5 5h7c2.8 0 5-2.2 5-5v-6.6c0-2.8-2.3-5-5-5z"/><path fill="#4b0082" d="M614.9 296.1h-7c-2.8 0-5 2.2-5 5v6.6c0 2.8 2.2 5 5 5h7c2.8 0 5-2.2 5-5v-6.6c0-2.8-2.3-5-5-5z"/><path fill="#493550" d="M614.9 230.2h-7c-2.8 0-5 2.2-5 5v6.6c0 2.8 2.2 5 5 5h7c2.8 0 5-2.2 5-5v-6.6c0-2.8-2.3-5-5-5z"/><path fill="#B800FA" d="M648.8 394.2h-7c-2.8 0-5 2.2-5 5v6.6c0 2.8 2.2 5 5 5h7c2.8 0 5-2.2 5-5v-6.6c0-2.8-2.2-5-5-5z"/><path fill="#A123CF " d="M581.5 197.5h-7c-2.8 0-5 2.2-5 5v6.6c0 2.8 2.2 5 5 5h7c2.8 0 5-2.2 5-5v-6.6c0-2.8-2.3-5-5-5zm33.4-164h-7c-2.8 0-5 2.2-5 5v6.6c0 2.8 2.2 5 5 5h7c2.8 0 5-2.2 5-5v-6.6c0-2.8-2.3-5-5-5z"/><path fill="#493550" d="M380.5 394.2h-7c-2.8 0-5 2.2-5 5v6.6c0 2.8 2.2 5 5 5h7c2.8 0 5-2.2 5-5v-6.6c0-2.8-2.2-5-5-5zm201-130.8h-7c-2.8 0-5 2.2-5 5v6.6c0 2.8 2.2 5 5 5h7c2.8 0 5-2.2 5-5v-6.6c0-2.8-2.3-5-5-5z"/><path fill="#B800FA" d="M548.1 361.5h-7c-2.8 0-5 2.2-5 5v6.6c0 2.8 2.2 5 5 5h7c2.8 0 5-2.2 5-5v-6.6c0-2.8-2.3-5-5-5z"/><path fill="#493550" d="M514.6 197.5h-7c-2.8 0-5 2.2-5 5v6.6c0 2.8 2.2 5 5 5h7c2.8 0 5-2.2 5-5v-6.6c0-2.8-2.2-5-5-5z"/><path fill="#6A3D7A" d="M514.6.8h-7c-2.8 0-5 2.2-5 5v6.6c0 2.8 2.2 5 5 5h7c2.8 0 5-2.2 5-5V5.8c0-2.8-2.2-5-5-5z"/><path fill="#A123CF " d="M581.5 394.2h-7c-2.8 0-5 2.2-5 5v6.6c0 2.8 2.2 5 5 5h7c2.8 0 5-2.2 5-5v-6.6c0-2.8-2.3-5-5-5z"/><path fill="#6A3D7A" d="M514.6 263.4h-7c-2.8 0-5 2.2-5 5v6.6c0 2.8 2.2 5 5 5h7c2.8 0 5-2.2 5-5v-6.6c0-2.8-2.2-5-5-5z"/><path fill="#A123CF " d="M648.8 328.8h-7c-2.8 0-5 2.2-5 5v6.6c0 2.8 2.2 5 5 5h7c2.8 0 5-2.2 5-5v-6.6c0-2.8-2.2-5-5-5z"/><path fill="#493550" d="M347.1 296.1h-7c-2.8 0-5 2.2-5 5v6.6c0 2.8 2.2 5 5 5h7c2.8 0 5-2.2 5-5v-6.6c0-2.8-2.3-5-5-5z"/><path fill="#B800FA" d="M246.3 197.5h-7c-2.8 0-5 2.2-5 5v6.6c0 2.8 2.2 5 5 5h7c2.8 0 5-2.2 5-5v-6.6c0-2.8-2.2-5-5-5zm67.4 0h-7c-2.8 0-5 2.2-5 5v6.6c0 2.8 2.2 5 5 5h7c2.8 0 5-2.2 5-5v-6.6c0-2.8-2.3-5-5-5zm-100.8 98.6h-7c-2.8 0-5 2.2-5 5v6.6c0 2.8 2.2 5 5 5h7c2.8 0 5-2.2 5-5v-6.6c0-2.8-2.2-5-5-5z"/><path fill="#6A3D7A" d="M280.3 296.1h-7c-2.8 0-5 2.2-5 5v6.6c0 2.8 2.2 5 5 5h7c2.8 0 5-2.2 5-5v-6.6c0-2.8-2.3-5-5-5z"/><path fill="#4b0082" d="M179.5 197.5h-7c-2.8 0-5 2.2-5 5v6.6c0 2.8 2.2 5 5 5h7c2.8 0 5-2.2 5-5v-6.6c0-2.8-2.2-5-5-5z"/><path fill="#B800FA" d="M313.7.8h-7c-2.8 0-5 2.2-5 5v6.6c0 2.8 2.2 5 5 5h7c2.8 0 5-2.2 5-5V5.8c0-2.8-2.3-5-5-5z"/><path fill="#493550" d="M313.7 328.8h-7c-2.8 0-5 2.2-5 5v6.6c0 2.8 2.2 5 5 5h7c2.8 0 5-2.2 5-5v-6.6c0-2.8-2.3-5-5-5zm-201-131.3h-7c-2.8 0-5 2.2-5 5v6.6c0 2.8 2.2 5 5 5h7c2.8 0 5-2.2 5-5v-6.6c0-2.8-2.2-5-5-5z"/><path fill="#A123CF " d="M12 296.1H5c-2.8 0-5 2.2-5 5v6.6c0 2.8 2.2 5 5 5h7c2.8 0 5-2.2 5-5v-6.6c0-2.8-2.3-5-5-5z"/><path fill="#6A3D7A" d="M146.1 296.1h-7c-2.8 0-5 2.2-5 5v6.6c0 2.8 2.2 5 5 5h7c2.8 0 5-2.2 5-5v-6.6c0-2.8-2.2-5-5-5zM715.6 66.2h-7c-2.8 0-5 2.2-5 5v6.6c0 2.8 2.2 5 5 5h7c2.8 0 5-2.2 5-5v-6.6c0-2.8-2.2-5-5-5z"/><path fill="#B800FA" d="M816.4 33.5h-7c-2.8 0-5 2.2-5 5v6.6c0 2.8 2.2 5 5 5h7c2.8 0 5-2.2 5-5v-6.6c0-2.8-2.3-5-5-5z"/><path fill="#A123CF " d="M782.5 394.2h-7c-2.8 0-5 2.2-5 5v6.6c0 2.8 2.2 5 5 5h7c2.8 0 5-2.2 5-5v-6.6c0-2.8-2.3-5-5-5z"/><path fill="#6A3D7A" d="M782.5 328.8h-7c-2.8 0-5 2.2-5 5v6.6c0 2.8 2.2 5 5 5h7c2.8 0 5-2.2 5-5v-6.6c0-2.8-2.3-5-5-5z"/><path fill="#4b0082" d="M749 33.5h-7c-2.8 0-5 2.2-5 5v6.6c0 2.8 2.2 5 5 5h7c2.8 0 5-2.2 5-5v-6.6c0-2.8-2.2-5-5-5zm33.5 98.6h-7c-2.8 0-5 2.2-5 5v6.6c0 2.8 2.2 5 5 5h7c2.8 0 5-2.2 5-5v-6.6c0-2.8-2.3-5-5-5zm0 131.3h-7c-2.8 0-5 2.2-5 5v6.6c0 2.8 2.2 5 5 5h7c2.8 0 5-2.2 5-5v-6.6c0-2.8-2.3-5-5-5z"/><path fill="#6A3D7A" d="M749 197.5h-7c-2.8 0-5 2.2-5 5v6.6c0 2.8 2.2 5 5 5h7c2.8 0 5-2.2 5-5v-6.6c0-2.8-2.2-5-5-5z"/><path fill="#A123CF " d="M782.5 197.5h-7c-2.8 0-5 2.2-5 5v6.6c0 2.8 2.2 5 5 5h7c2.8 0 5-2.2 5-5v-6.6c0-2.8-2.3-5-5-5zm-66.9-65.4h-7c-2.8 0-5 2.2-5 5v6.6c0 2.8 2.2 5 5 5h7c2.8 0 5-2.2 5-5v-6.6c0-2.8-2.2-5-5-5z"/><path fill="#4b0082" d="M749 296.1h-7c-2.8 0-5 2.2-5 5v6.6c0 2.8 2.2 5 5 5h7c2.8 0 5-2.2 5-5v-6.6c0-2.8-2.2-5-5-5z"/><path fill="#A123CF " d="M682.2 361.5h-7c-2.8 0-5 2.2-5 5v6.6c0 2.8 2.2 5 5 5h7c2.8 0 5-2.2 5-5v-6.6c0-2.8-2.2-5-5-5z"/><path fill="#4b0082" d="M715.6 328.8h-7c-2.8 0-5 2.2-5 5v6.6c0 2.8 2.2 5 5 5h7c2.8 0 5-2.2 5-5v-6.6c0-2.8-2.2-5-5-5zm-33.4-98.6h-7c-2.8 0-5 2.2-5 5v6.6c0 2.8 2.2 5 5 5h7c2.8 0 5-2.2 5-5v-6.6c0-2.8-2.2-5-5-5z"/><path fill="#6A3D7A" d="M715.6 197.5h-7c-2.8 0-5 2.2-5 5v6.6c0 2.8 2.2 5 5 5h7c2.8 0 5-2.2 5-5v-6.6c0-2.8-2.2-5-5-5z"/><path fill="#493550" d="M782.5 66.2h-7c-2.8 0-5 2.2-5 5v6.6c0 2.8 2.2 5 5 5h7c2.8 0 5-2.2 5-5v-6.6c0-2.8-2.3-5-5-5z"/><path fill="#A123CF " d="M782.5.8h-7c-2.8 0-5 2.2-5 5v6.6c0 2.8 2.2 5 5 5h7c2.8 0 5-2.2 5-5V5.8c0-2.8-2.3-5-5-5zm33.9 328h-7c-2.8 0-5 2.2-5 5v6.6c0 2.8 2.2 5 5 5h7c2.8 0 5-2.2 5-5v-6.6c0-2.8-2.3-5-5-5z"/><path fill="#4b0082" d="M816.4 296.1h-7c-2.8 0-5 2.2-5 5v6.6c0 2.8 2.2 5 5 5h7c2.8 0 5-2.2 5-5v-6.6c0-2.8-2.3-5-5-5zm0-131.3h-7c-2.8 0-5 2.2-5 5v6.6c0 2.8 2.2 5 5 5h7c2.8 0 5-2.2 5-5v-6.6c0-2.8-2.3-5-5-5z"/><path fill="#493550" d="M816.4 99.4h-7c-2.8 0-5 2.2-5 5v6.6c0 2.8 2.2 5 5 5h7c2.8 0 5-2.2 5-5v-6.6c0-2.8-2.3-5-5-5z"/></svg>